<svg width="109" height="10" viewBox="0 0 109 10" fill="none" xmlns="http://www.w3.org/2000/svg">
<path d="M0.646446 4.64645C0.451183 4.84171 0.451183 5.15829 0.646446 5.35355L3.82843 8.53553C4.02369 8.7308 4.34027 8.7308 4.53553 8.53553C4.7308 8.34027 4.7308 8.02369 4.53553 7.82843L1.70711 5L4.53553 2.17157C4.7308 1.97631 4.7308 1.65973 4.53553 1.46447C4.34027 1.2692 4.02369 1.2692 3.82843 1.46447L0.646446 4.64645ZM40 4.5L1 4.5V5.5L40 5.5V4.5Z" fill="black"/>
<path d="M108.354 5.35356C108.549 5.1583 108.549 4.84172 108.354 4.64645L105.172 1.46447C104.976 1.26921 104.66 1.26921 104.464 1.46447C104.269 1.65973 104.269 1.97632 104.464 2.17158L107.293 5.00001L104.464 7.82843C104.269 8.0237 104.269 8.34028 104.464 8.53554C104.66 8.7308 104.976 8.7308 105.172 8.53554L108.354 5.35356ZM69 5.5L108 5.50001L108 4.50001L69 4.5L69 5.5Z" fill="black"/>
<circle cx="55" cy="5" r="4.5" stroke="black"/>
</svg>
