<svg width="107" height="50" viewBox="0 0 107 50" fill="none" xmlns="http://www.w3.org/2000/svg">
<path d="M0.673295 27.2358V21.5682H1.78125C2.18466 21.1477 2.55682 20.5938 2.89773 19.9062C3.23864 19.2131 3.52273 18.321 3.75 17.2301C3.98295 16.1335 4.13352 14.7642 4.2017 13.1222L4.55114 5.54545H14.5312V21.5682H16.5767V27.1932H15.0597V23H2.19034V27.2358H0.673295ZM3.69034 21.5682H13.0142V6.97727H6L5.72727 13.1222C5.66477 14.4574 5.5483 15.6477 5.37784 16.6932C5.20739 17.733 4.98011 18.6562 4.69602 19.4631C4.41761 20.2642 4.08239 20.9659 3.69034 21.5682Z" fill="white"/>
<path d="M15.3182 26.5455H17.1591L23.4915 41.75H23.6449L29.9773 26.5455H31.8182V44H30.3182V29.9119H30.1818L24.2926 44H22.8438L16.9545 29.9119H16.8182V44H15.3182V26.5455Z" fill="#0052F1"/>
<path d="M19.7386 22V8.90909H27.3324V9.98295H20.9339V14.9112H26.9297V15.9851H20.9339V20.9261H27.4602V22H19.7386ZM30.4261 22V8.90909H31.6214V14.9112H39.049V8.90909H40.2443V22H39.049V15.9851H31.6214V22H30.4261ZM43.7152 8.90909H44.8913V19.8842H44.9936L52.7472 8.90909H53.9105V22H52.7152V11.0376H52.6129L44.8722 22H43.7152V8.90909ZM67.6438 13H66.4421C66.3526 12.5526 66.1907 12.1392 65.9563 11.7599C65.7262 11.3764 65.4364 11.0419 65.087 10.7564C64.7376 10.4709 64.3413 10.2493 63.8981 10.0916C63.4549 9.93395 62.9755 9.85511 62.4599 9.85511C61.6332 9.85511 60.8789 10.0703 60.1971 10.5007C59.5195 10.9311 58.9762 11.5639 58.5671 12.3991C58.1623 13.2301 57.9599 14.2486 57.9599 15.4545C57.9599 16.669 58.1623 17.6918 58.5671 18.5227C58.9762 19.3537 59.5195 19.9844 60.1971 20.4148C60.8789 20.8409 61.6332 21.054 62.4599 21.054C62.9755 21.054 63.4549 20.9751 63.8981 20.8175C64.3413 20.6598 64.7376 20.4403 65.087 20.1591C65.4364 19.8736 65.7262 19.5391 65.9563 19.1555C66.1907 18.772 66.3526 18.3565 66.4421 17.9091H67.6438C67.5373 18.5099 67.337 19.0703 67.043 19.5902C66.7532 20.1058 66.3825 20.5575 65.9308 20.9453C65.4833 21.3331 64.9677 21.6357 64.3839 21.853C63.8001 22.0703 63.1587 22.179 62.4599 22.179C61.3604 22.179 60.3846 21.9041 59.5323 21.3544C58.68 20.8004 58.011 20.0206 57.5252 19.0149C57.0437 18.0092 56.8029 16.8224 56.8029 15.4545C56.8029 14.0866 57.0437 12.8999 57.5252 11.8942C58.011 10.8885 58.68 10.1108 59.5323 9.56108C60.3846 9.0071 61.3604 8.73011 62.4599 8.73011C63.1587 8.73011 63.8001 8.83878 64.3839 9.05611C64.9677 9.26918 65.4833 9.57173 65.9308 9.96378C66.3825 10.3516 66.7532 10.8033 67.043 11.3189C67.337 11.8345 67.5373 12.3949 67.6438 13Z" fill="white"/>
<path d="M36.7578 42H35.505L40.267 28.9091H41.5455L46.3075 42H45.0547L40.951 30.4624H40.8615L36.7578 42ZM37.6591 36.9822H44.1534V38.0561H37.6591V36.9822ZM56.1385 42L51.6321 35.8253H49.7464V42H48.5511V28.9091H49.7464V34.7578H50.929L55.755 28.9091H57.174L52.3224 34.8089L57.5703 42H56.1385ZM59.8379 42H58.585L63.3471 28.9091H64.6255L69.3876 42H68.1348L64.0311 30.4624H63.9416L59.8379 42ZM60.7392 36.9822H67.2335V38.0561H60.7392V36.9822ZM71.6312 42V28.9091H75.8564C76.7853 28.9091 77.5609 29.0881 78.1831 29.446C78.8095 29.7997 79.2804 30.2812 79.5957 30.8906C79.9153 31.5 80.0751 32.1861 80.0751 32.9489C80.0751 33.7116 79.9174 34.3999 79.6021 35.0135C79.2868 35.6229 78.818 36.1065 78.1958 36.4645C77.5737 36.8182 76.8002 36.995 75.8755 36.995H72.5517V35.9212H75.8436C76.5297 35.9212 77.0985 35.7933 77.5502 35.5376C78.002 35.2777 78.3386 34.924 78.5602 34.4766C78.786 34.0291 78.899 33.5199 78.899 32.9489C78.899 32.3778 78.786 31.8686 78.5602 31.4212C78.3386 30.9737 77.9998 30.6222 77.5439 30.3665C77.0922 30.1108 76.519 29.983 75.8244 29.983H72.8265V42H71.6312ZM93.6135 35.4545C93.6135 36.8182 93.3706 38.005 92.8848 39.0149C92.399 40.0206 91.7299 40.8004 90.8777 41.3544C90.0297 41.9041 89.0538 42.179 87.9501 42.179C86.8464 42.179 85.8684 41.9041 85.0162 41.3544C84.1681 40.8004 83.5012 40.0206 83.0154 39.0149C82.5339 38.005 82.2931 36.8182 82.2931 35.4545C82.2931 34.0909 82.5339 32.9062 83.0154 31.9006C83.5012 30.8906 84.1703 30.1108 85.0225 29.5611C85.8748 29.0071 86.8507 28.7301 87.9501 28.7301C89.0538 28.7301 90.0297 29.0071 90.8777 29.5611C91.7299 30.1108 92.399 30.8906 92.8848 31.9006C93.3706 32.9062 93.6135 34.0909 93.6135 35.4545ZM92.4501 35.4545C92.4501 34.2827 92.2541 33.2791 91.862 32.4439C91.47 31.6044 90.9352 30.9631 90.2576 30.5199C89.5801 30.0767 88.8109 29.8551 87.9501 29.8551C87.0936 29.8551 86.3265 30.0767 85.649 30.5199C84.9714 30.9631 84.4345 31.6023 84.0382 32.4375C83.6461 33.2727 83.4501 34.2784 83.4501 35.4545C83.4501 36.6264 83.6461 37.63 84.0382 38.4652C84.4302 39.3004 84.965 39.9418 85.6426 40.3892C86.3201 40.8324 87.0893 41.054 87.9501 41.054C88.8109 41.054 89.5801 40.8324 90.2576 40.3892C90.9395 39.946 91.4764 39.3068 91.8684 38.4716C92.2605 37.6321 92.4544 36.6264 92.4501 35.4545ZM96.5043 42V28.9091H100.921C101.773 28.9091 102.483 29.0582 103.05 29.3565C103.621 29.6548 104.049 30.0618 104.335 30.5774C104.62 31.093 104.763 31.679 104.763 32.3352C104.763 32.8807 104.671 33.3473 104.488 33.7351C104.305 34.1229 104.055 34.4361 103.74 34.6747C103.425 34.9134 103.073 35.0859 102.685 35.1925V35.2947C103.107 35.3246 103.516 35.4737 103.913 35.7422C104.309 36.0064 104.635 36.3771 104.891 36.8544C105.146 37.3317 105.274 37.9027 105.274 38.5675C105.274 39.228 105.127 39.8182 104.833 40.3381C104.539 40.8537 104.087 41.2607 103.478 41.5589C102.873 41.853 102.102 42 101.164 42H96.5043ZM97.6996 40.9261H101.164C102.174 40.9261 102.92 40.7024 103.401 40.255C103.887 39.8075 104.13 39.245 104.13 38.5675C104.13 38.0689 104.009 37.6172 103.766 37.2124C103.527 36.8033 103.188 36.4794 102.749 36.2408C102.315 36.0021 101.803 35.8828 101.215 35.8828H97.6996V40.9261ZM97.6996 34.8217H101.03C101.545 34.8217 101.997 34.7152 102.385 34.5021C102.773 34.2891 103.075 33.995 103.293 33.62C103.51 33.245 103.619 32.8168 103.619 32.3352C103.619 31.6406 103.393 31.076 102.941 30.6413C102.489 30.2024 101.816 29.983 100.921 29.983H97.6996V34.8217Z" fill="#0052F1"/>
</svg>
