<svg width="19" height="17" viewBox="0 0 19 17" fill="none" xmlns="http://www.w3.org/2000/svg">
<path fill-rule="evenodd" clip-rule="evenodd" d="M1.30287 7.45363C6.39171 5.23642 9.78482 3.77456 11.4822 3.06804C16.3301 1.05269 17.3426 0.702694 17.9938 0.689671C18.2353 0.684977 18.4721 0.756148 18.671 0.89316C18.8106 1.0135 18.8995 1.18212 18.9201 1.36525C18.9551 1.59301 18.965 1.82394 18.9494 2.05386C18.6873 4.8213 17.5494 11.5104 16.9715 14.6018C16.7273 15.9041 16.2454 16.3485 15.7782 16.3925C14.7657 16.4853 13.9875 15.7218 13.0108 15.0787C11.474 14.0711 10.6064 13.4508 9.1152 12.4611C7.39124 11.3215 8.50962 10.7013 9.49124 9.68223C9.74845 9.41525 14.2122 5.352 14.3001 4.98409C14.3117 4.92976 14.3103 4.87347 14.2962 4.81975C14.2821 4.76603 14.2555 4.71638 14.2187 4.67479C14.1653 4.64139 14.1048 4.62091 14.042 4.61498C13.9793 4.60904 13.916 4.61782 13.8573 4.6406C13.7043 4.67425 11.2505 6.29618 6.4959 9.50642C5.79916 9.98502 5.16807 10.2184 4.60264 10.2064C3.97916 10.1918 2.78101 9.85316 1.88892 9.55525C0.796591 9.20037 -0.0645647 9.01316 0.00380735 8.41572C0.0439624 8.10316 0.476982 7.78246 1.30287 7.45363Z" fill="#0052F1"/>
</svg>
