<svg width="18" height="18" viewBox="0 0 18 18" fill="none" xmlns="http://www.w3.org/2000/svg">
<path d="M0.213867 17.4642L1.44294 12.9777C0.492084 11.3266 0.112457 9.40797 0.362916 7.5192C0.613376 5.63043 1.47992 3.87703 2.82824 2.53084C4.17655 1.18465 5.9313 0.320848 7.82047 0.0733584C9.70963 -0.174131 11.6277 0.208511 13.2773 1.16197C14.9268 2.11542 16.2158 3.58643 16.9443 5.34695C17.6729 7.10747 17.8003 9.05915 17.3068 10.8994C16.8133 12.7397 15.7265 14.3658 14.2149 15.5256C12.7033 16.6855 10.8513 17.3142 8.94596 17.3144C7.50069 17.3136 6.07862 16.9509 4.80946 16.2595L0.213867 17.4642ZM5.01619 14.6968L5.27992 14.8595C6.38889 15.5163 7.65387 15.8632 8.94271 15.864C10.5387 15.8643 12.0896 15.3342 13.3515 14.357C14.6134 13.3798 15.5148 12.011 15.914 10.4657C16.3131 8.92036 16.1874 7.28622 15.5566 5.82014C14.9258 4.35407 13.8256 3.13921 12.4291 2.36655C11.0325 1.59389 9.41884 1.30725 7.84164 1.55168C6.26444 1.79612 4.8132 2.55778 3.71606 3.71691C2.61892 4.87605 1.93811 6.36693 1.78065 7.95517C1.62319 9.54341 1.99802 11.1389 2.8462 12.4909L3.00899 12.7628L2.28131 15.4179L5.01619 14.6968Z" fill="#0052F1"/>
<path fill-rule="evenodd" clip-rule="evenodd" d="M13.3075 10.7149C13.2538 10.6237 13.1089 10.57 12.8923 10.4625C12.6758 10.3551 11.6128 9.83091 11.4142 9.75766C11.2156 9.6844 11.0724 9.65022 10.9258 9.86673C10.7793 10.0832 10.3675 10.57 10.2421 10.7149C10.1168 10.8598 9.98817 10.8777 9.77328 10.7686C9.13875 10.5138 8.55325 10.1508 8.04282 9.6958C7.56984 9.2583 7.16442 8.75303 6.83979 8.1965C6.71281 7.97998 6.82514 7.87091 6.93421 7.75533C7.04328 7.63975 7.15072 7.50138 7.25979 7.37603C7.3493 7.26684 7.42226 7.14507 7.47631 7.01463C7.5048 6.95483 7.51807 6.88891 7.51495 6.82274C7.51183 6.75656 7.49239 6.69219 7.45839 6.63533C7.40467 6.52789 6.97003 5.46324 6.79096 5.03022C6.61189 4.59719 6.4377 4.66557 6.30258 4.65743C6.16747 4.64929 6.03236 4.65743 5.8891 4.65743C5.77784 4.65926 5.6682 4.68441 5.56725 4.73123C5.46631 4.77806 5.3763 4.84553 5.30305 4.92929C5.06027 5.15948 4.86771 5.43738 4.73744 5.74554C4.60718 6.05369 4.54203 6.38545 4.54608 6.71998C4.54608 7.78464 5.32096 8.81347 5.43003 8.95836C5.5391 9.10324 6.95538 11.2879 9.12538 12.2239C9.52827 12.3978 9.94017 12.5499 10.3593 12.6798C10.8007 12.8138 11.2672 12.8433 11.7219 12.766C12.137 12.7042 13.0014 12.2418 13.187 11.7372C13.3726 11.2325 13.3612 10.8044 13.3075 10.7149Z" fill="#0052F1"/>
</svg>
